<svg width="45" height="44" viewBox="0 0 45 44" fill="none" xmlns="http://www.w3.org/2000/svg">
<path d="M20.5199 0.0580374C20.8571 0.0580374 21.2504 0.00317459 21.5876 0.00317459C24.6783 -0.0516883 27.6004 0.606666 30.4663 1.81365C33.1074 2.91091 35.4113 4.44707 37.4343 6.42213C39.2887 8.2326 40.806 10.3174 41.9299 12.6216C42.9414 14.7064 43.5595 16.8461 43.9529 19.1503C44.009 19.6441 44.0652 20.1378 44.0652 20.6316C44.0652 21.3448 44.0652 22.058 44.0652 22.7713C44.1214 24.6366 43.7843 26.4471 43.2785 28.2027C42.6042 30.5618 41.5365 32.7014 40.0755 34.6765C38.3896 37.0356 36.3104 38.9558 33.7817 40.5468C31.253 42.1378 28.4995 43.1802 25.465 43.674C23.7792 43.9483 21.8124 44.058 20.1827 43.9483C26.2517 43.1802 31.4216 40.7114 35.3552 36.0481C39.2887 31.4396 40.9746 26.0082 40.4126 20.0281C39.5135 9.82362 31.1406 1.26502 20.5199 0.167763C20.5199 0.1129 20.5199 0.1129 20.5199 0.0580374Z" fill="black"/>
<path d="M19.5085 4.94117C19.0589 4.99604 18.6093 5.0509 18.1598 5.16063C14.0014 5.98357 10.5736 7.95863 7.82007 11.0858C5.79708 13.3901 4.50462 16.0235 3.94268 18.9861C3.38074 22.0584 3.60551 25.1307 4.7294 28.0933C5.6847 30.5621 7.08955 32.7018 9.05634 34.5123C11.7537 37.0359 15.0129 38.5172 18.6655 39.1207C18.8903 39.1756 19.1151 39.1756 19.3961 39.2853C19.0589 39.2853 18.7779 39.3402 18.4408 39.3402C15.0691 39.395 11.8661 38.627 8.94396 36.9811C5.6285 35.1157 3.21216 32.5921 1.58253 29.2454C0.795808 27.5995 0.290061 25.8439 0.121478 24.0334C-0.27188 20.7417 0.290061 17.5596 1.8073 14.5422C3.49313 11.1955 6.13425 8.67185 9.4497 6.86137C11.2479 5.87384 13.2147 5.27035 15.2939 4.99604C16.6987 4.83145 18.1036 4.77659 19.5085 4.94117Z" fill="black"/>
</svg>
