<svg width="149" height="13" viewBox="0 0 149 13" fill="none" xmlns="http://www.w3.org/2000/svg">
<path d="M147.159 2.3014V0.976562H147.767C148.003 0.976562 148.189 1.12561 148.189 1.34089C148.189 1.5065 148.105 1.62242 147.97 1.6721C148.122 1.6721 148.172 1.73835 148.172 1.85427V2.3014H147.936V1.92051C147.936 1.82115 147.902 1.78803 147.801 1.78803H147.378V2.3014H147.159ZM147.395 1.5893H147.716C147.868 1.5893 147.97 1.5065 147.97 1.37401C147.97 1.24153 147.885 1.17529 147.716 1.17529H147.395V1.5893Z" fill="black"/>
<path d="M147.666 2.89797C146.956 2.89797 146.365 2.33492 146.365 1.62282C146.365 0.910714 146.939 0.347656 147.666 0.347656C148.375 0.347656 148.966 0.910714 148.966 1.62282C148.966 2.33492 148.375 2.89797 147.666 2.89797ZM147.666 0.596064C147.091 0.596064 146.618 1.05976 146.618 1.62282C146.618 2.18587 147.091 2.64957 147.666 2.64957C148.24 2.64957 148.713 2.18587 148.713 1.62282C148.713 1.05976 148.24 0.596064 147.666 0.596064Z" fill="black"/>
<path d="M0 5.18344C0 2.00382 2.34792 0 5.10124 0C7.88834 0 10.2194 1.9707 10.2194 5.18344C10.2194 8.39618 7.90523 10.4497 5.10124 10.4497C2.28035 10.4497 0 8.41274 0 5.18344ZM8.66535 5.18344C8.66535 2.81529 7.11133 1.29172 5.10124 1.29172C3.09115 1.29172 1.53713 2.81529 1.53713 5.18344C1.53713 7.55159 3.09115 9.1414 5.10124 9.1414C7.12822 9.15796 8.66535 7.56815 8.66535 5.18344Z" fill="black"/>
<path d="M12.7024 9.12462V12.9998H11.3173V2.83162H12.7024V3.95774C13.1078 3.24563 13.9692 2.66602 15.2023 2.66602C17.1279 2.66602 18.6989 4.02398 18.6989 6.50805C18.6989 9.05837 17.0773 10.4495 15.1685 10.4495C14.0199 10.4329 13.1247 9.85328 12.7024 9.12462ZM17.28 6.49149C17.28 4.7692 16.2665 3.80869 14.9996 3.80869C13.699 3.80869 12.6855 4.78576 12.6855 6.49149C12.6855 8.28003 13.7327 9.27366 14.9996 9.27366C16.2665 9.29022 17.28 8.24691 17.28 6.49149Z" fill="black"/>
<path d="M23.04 10.4329C20.9454 10.4329 19.2394 8.92585 19.2394 6.49145C19.2394 4.10674 21.013 2.64941 22.9555 2.64941C24.898 2.64941 26.621 3.99082 26.621 6.60738V6.93859H20.6583C20.7934 8.34623 21.8069 9.27362 23.0906 9.27362C23.9859 9.27362 24.7798 8.94241 25.1683 8.13094H26.5534C26.1142 9.70419 24.5602 10.4329 23.04 10.4329ZM20.6414 5.84559H25.1852C25.1007 4.60355 24.1548 3.79209 22.9217 3.79209C21.7562 3.79209 20.7765 4.57043 20.6414 5.84559Z" fill="black"/>
<path d="M28.952 10.2672H27.5669V2.81502H28.9351V3.84177C29.4081 3.11311 30.2189 2.64941 31.283 2.64941C32.9553 2.64941 34.0194 3.65961 34.0194 5.61375V10.2672H32.6343V5.76279C32.6343 4.52075 31.9418 3.82521 30.8607 3.82521C29.8304 3.82521 28.9351 4.57043 28.9351 6.094L28.952 10.2672Z" fill="black"/>
<path d="M39.1207 0.21582H42.9381C45.3198 0.21582 46.5867 1.4413 46.5867 3.3292C46.5867 5.25022 45.2523 6.47569 42.9212 6.47569H40.5733V10.268H39.1038L39.1207 0.21582ZM42.8537 5.23365C44.3232 5.23365 45.1002 4.50499 45.1002 3.34576C45.1002 2.20308 44.3063 1.4413 42.8537 1.4413H40.5902V5.21709L42.8537 5.23365Z" fill="black"/>
<path d="M48.6476 10.2676H47.2625V2.83191H48.6307V4.05739C48.7996 3.77586 49.0023 3.51089 49.2894 3.27904C49.7455 2.91471 50.2016 2.78223 50.8266 2.78223C50.9955 2.78223 51.1813 2.79879 51.3164 2.83191V4.14019C50.9617 4.12363 50.8097 4.12363 50.6239 4.12363C49.7962 4.12363 48.6476 4.48796 48.6476 6.06121V10.2676Z" fill="black"/>
<path d="M51.2319 6.49145C51.2319 4.18954 52.9549 2.64941 55.0663 2.64941C57.2284 2.64941 58.9007 4.15642 58.9007 6.49145C58.9007 8.87616 57.1778 10.4329 55.0663 10.4329C52.938 10.4329 51.2319 8.90929 51.2319 6.49145ZM57.5156 6.49145C57.5156 4.93476 56.4852 3.84177 55.0832 3.84177C53.6643 3.84177 52.6508 4.93476 52.6508 6.49145C52.6508 8.11438 53.6643 9.2405 55.0832 9.2405C56.5021 9.2405 57.5156 8.13094 57.5156 6.49145Z" fill="black"/>
<path d="M59.4243 6.49145C59.4243 4.23922 61.1135 2.64941 63.1742 2.64941C64.8972 2.64941 66.4005 3.74241 66.6032 5.36534H65.235C64.9816 4.42139 64.1539 3.84177 63.1573 3.84177C61.806 3.84177 60.8263 4.93476 60.8263 6.49145C60.8263 8.0647 61.806 9.2405 63.1573 9.2405C64.137 9.2405 64.9478 8.694 65.235 7.68381H66.6032C66.3498 9.38954 64.8296 10.4329 63.1573 10.4329C61.0797 10.4329 59.4243 8.8596 59.4243 6.49145Z" fill="black"/>
<path d="M70.8091 10.4329C68.7146 10.4329 67.0085 8.92585 67.0085 6.49145C67.0085 4.10674 68.7822 2.64941 70.7247 2.64941C72.6672 2.64941 74.3901 3.99082 74.3901 6.60738V6.93859H68.4274C68.5626 8.34623 69.5761 9.27362 70.8598 9.27362C71.7551 9.27362 72.549 8.94241 72.9375 8.13094H74.3226C73.8665 9.68763 72.3294 10.4329 70.8091 10.4329ZM68.4105 5.84559H72.9544C72.8699 4.60355 71.924 3.79209 70.6909 3.79209C69.5254 3.79209 68.5288 4.57043 68.4105 5.84559Z" fill="black"/>
<path d="M74.7955 7.93218H76.1131C76.282 8.85956 77.0928 9.3067 78.1063 9.3067C78.9509 9.3067 79.7954 8.94237 79.7954 8.23027C79.7954 7.56784 79.1873 7.28632 78.0725 7.08759L77.2955 6.93855C75.8428 6.67358 74.9813 6.02772 74.9813 4.9016C74.9813 3.51052 76.2989 2.63281 77.8698 2.63281C79.4238 2.63281 80.7414 3.44428 80.9103 4.88504H79.6096C79.4238 4.13982 78.7482 3.74237 77.8191 3.74237C76.9577 3.74237 76.2651 4.15638 76.2651 4.78568C76.2651 5.3653 76.7718 5.59714 77.7009 5.76275L78.4779 5.91179C80.0826 6.20988 81.0961 6.82262 81.0961 8.09778C81.0961 9.58823 79.6265 10.4328 78.0556 10.4328C76.3833 10.4328 74.9644 9.60479 74.7955 7.93218Z" fill="black"/>
<path d="M81.5522 7.93218H82.8698C83.0387 8.85956 83.8495 9.3067 84.863 9.3067C85.7076 9.3067 86.5522 8.94237 86.5522 8.23027C86.5522 7.56784 85.9441 7.28632 84.8292 7.08759L84.0522 6.93855C82.5995 6.67358 81.7381 6.02772 81.7381 4.9016C81.7381 3.51052 83.0556 2.63281 84.6265 2.63281C86.1805 2.63281 87.4981 3.44428 87.667 4.88504H86.3663C86.1805 4.13982 85.5049 3.74237 84.5758 3.74237C83.7144 3.74237 83.0218 4.15638 83.0218 4.78568C83.0218 5.3653 83.5286 5.59714 84.4576 5.76275L85.2346 5.91179C86.8393 6.20988 87.8528 6.82262 87.8528 8.09778C87.8528 9.58823 86.3832 10.4328 84.8123 10.4328C83.1401 10.4328 81.7212 9.60479 81.5522 7.93218Z" fill="black"/>
<path d="M96.9066 10.268H95.2681L91.4169 0.199219H92.9878L96.1296 8.62852L99.2714 0.199219H100.758L96.9066 10.268Z" fill="black"/>
<path d="M103.832 10.4163C101.738 10.4163 100.031 8.90925 100.031 6.47485C100.031 4.09014 101.805 2.63281 103.748 2.63281C105.69 2.63281 107.413 3.97421 107.413 6.59077V6.92198H101.45C101.586 8.32963 102.599 9.25702 103.883 9.25702C104.778 9.25702 105.572 8.92581 105.96 8.11434H107.346C106.889 9.68759 105.352 10.4163 103.832 10.4163ZM101.417 5.84555H105.96C105.876 4.60351 104.93 3.79205 103.697 3.79205C102.531 3.77549 101.552 4.55383 101.417 5.84555Z" fill="black"/>
<path d="M109.744 10.2672H108.359V2.81502H109.727V3.84177C110.2 3.11311 111.011 2.64941 112.075 2.64941C113.748 2.64941 114.812 3.65961 114.812 5.61375V10.2672H113.427V5.76279C113.427 4.52075 112.734 3.82521 111.653 3.82521C110.623 3.82521 109.727 4.57043 109.727 6.094L109.744 10.2672Z" fill="black"/>
<path d="M116.484 8.37923V3.9079H115.149V2.8149H116.484V1.02637H117.852V2.8149H119.778V3.9079H117.852V8.19707C117.852 9.00853 118.156 9.17414 118.798 9.17414H119.761V10.2506C119.254 10.2837 119.018 10.2837 118.46 10.2837C117.261 10.2837 116.484 9.91936 116.484 8.37923Z" fill="black"/>
<path d="M125.386 9.24087C124.913 9.98609 124.119 10.4167 123.105 10.4167C121.501 10.4167 120.386 9.42303 120.386 7.51857V2.81539H121.771V7.31985C121.771 8.56189 122.48 9.22431 123.511 9.22431C124.457 9.22431 125.369 8.5122 125.369 7.03832V2.79883H126.754V10.2511H125.403L125.386 9.24087Z" fill="black"/>
<path d="M129.507 10.2675H128.122V2.81531H129.49V4.04078C129.659 3.75926 129.862 3.49429 130.149 3.26244C130.605 2.89811 131.061 2.76562 131.686 2.76562C131.855 2.76562 132.041 2.78219 132.176 2.81531V4.12359C131.821 4.10703 131.669 4.10703 131.483 4.10703C130.656 4.10703 129.507 4.47136 129.507 6.04461V10.2675Z" fill="black"/>
<path d="M135.909 10.4163C133.815 10.4163 132.109 8.90925 132.109 6.47485C132.109 4.09014 133.882 2.63281 135.825 2.63281C137.767 2.63281 139.49 3.97421 139.49 6.59077V6.92198H133.527C133.663 8.32963 134.676 9.25702 135.96 9.25702C136.855 9.25702 137.649 8.92581 138.037 8.11434H139.423C138.966 9.68759 137.429 10.4163 135.909 10.4163ZM133.511 5.82899H138.054C137.97 4.58695 137.024 3.77549 135.791 3.77549C134.625 3.77549 133.646 4.55383 133.511 5.82899Z" fill="black"/>
<path d="M139.896 7.93218H141.213C141.382 8.85956 142.193 9.3067 143.206 9.3067C144.051 9.3067 144.895 8.94237 144.895 8.23027C144.895 7.56784 144.287 7.28632 143.172 7.08759L142.395 6.93855C140.943 6.67358 140.081 6.02772 140.081 4.9016C140.081 3.51052 141.399 2.63281 142.97 2.63281C144.524 2.63281 145.841 3.44428 146.01 4.88504H144.71C144.524 4.13982 143.848 3.74237 142.919 3.74237C142.058 3.74237 141.365 4.15638 141.365 4.78568C141.365 5.3653 141.872 5.59714 142.801 5.76275L143.578 5.91179C145.183 6.20988 146.196 6.82262 146.196 8.09778C146.196 9.58823 144.726 10.4328 143.156 10.4328C141.483 10.4328 140.064 9.60479 139.896 7.93218Z" fill="black"/>
</svg>
